<svg width="3500" height="3500" viewBox="0 0 3500 3500" fill="none" xmlns="http://www.w3.org/2000/svg">
<rect width="3500" height="3500" rx="740" fill="#FFE141"/>
<path d="M630.461 1544.23C681.09 1544.23 726.294 1556.88 766.074 1582.19C806.215 1607.13 837.678 1642.55 860.461 1688.46C882.52 1732.56 893.55 1784.43 893.55 1844.07C893.55 1901.91 882.52 1953.6 860.461 1999.15C838.401 2044.69 807.3 2080.3 767.159 2105.96C726.656 2131.99 681.09 2145 630.461 2145C593.575 2145 558.858 2137.41 526.311 2122.23C493.763 2107.05 465.918 2085.72 442.773 2058.25V2131.44H254V1355H442.773V1630.44C465.918 1602.97 493.763 1581.82 526.311 1567C558.858 1551.82 593.575 1544.23 630.461 1544.23ZM574.046 1988.3C600.807 1988.3 624.675 1982.16 645.65 1969.87C666.625 1957.58 683.079 1940.41 695.013 1918.36C706.947 1896.67 712.914 1871.91 712.914 1844.07C712.914 1816.96 706.947 1792.38 695.013 1770.33C683.079 1748.28 666.625 1731.11 645.65 1718.82C624.675 1706.53 600.807 1700.39 574.046 1700.39C548.732 1700.39 526.13 1706.53 506.24 1718.82C486.35 1730.75 470.8 1747.56 459.589 1769.25C448.378 1791.3 442.773 1816.24 442.773 1844.07C442.773 1871.91 448.378 1896.85 459.589 1918.9C470.8 1940.59 486.35 1957.58 506.24 1969.87C526.13 1982.16 548.732 1988.3 574.046 1988.3Z" fill="black"/>
<path d="M919.393 2131.44V1355H1108.17V2131.44H919.393Z" fill="black"/>
<path d="M1161.67 2131.44V1557.24H1349.36V2131.44H1161.67Z" fill="black"/>
<path d="M1757.09 1544.23C1797.23 1544.23 1833.39 1553.63 1865.58 1572.43C1897.76 1590.86 1923.08 1616.89 1941.52 1650.5C1959.24 1684.48 1968.1 1722.98 1968.1 1766V2131.44H1788.01V1808.29C1788.01 1787.32 1783.85 1768.71 1775.53 1752.44C1767.58 1735.81 1756.19 1722.98 1741.36 1713.94C1726.89 1704.91 1709.9 1700.39 1690.37 1700.39C1671.92 1700.39 1654.93 1704.91 1639.38 1713.94C1623.83 1722.62 1611.71 1734.55 1603.03 1749.73C1593.99 1764.19 1589.47 1781.18 1589.47 1800.7L1588.39 2131.44H1400.7V1557.24H1588.39V1622.85C1606.11 1598.27 1629.79 1579.11 1659.45 1565.38C1689.1 1551.28 1721.65 1544.23 1757.09 1544.23Z" fill="black"/>
<path d="M2382.88 1808.29L2596.07 2131.44H2382.88L2258.12 1928.12L2200.62 1994.81V2131.44H2011.85V1355H2200.62V1783.89L2381.8 1557.24H2594.98L2382.88 1808.29Z" fill="black"/>
<path d="M1161.57 1355.06H1349.87V1502.26H1161.57V1355.06Z" fill="black"/>
<path d="M2626.03 2129.72V1555.52H2813.71V2129.72H2626.03Z" fill="#0C831F"/>
<path d="M3210.57 1967.6L3248 2088.52C3231 2104.78 3209.49 2117.98 3183.45 2128.1C3157.77 2138.22 3132.64 2143.28 3108.05 2143.28C3072.61 2143.28 3040.96 2135.51 3013.12 2119.96C2985.27 2104.06 2963.57 2082.01 2948.02 2053.81C2932.47 2026.34 2924.7 1994.71 2924.7 1958.93V1705.72H2849.3V1555.52H2924.7V1355.06H3104.79V1555.52H3223.59V1705.72H3104.79V1924.23C3104.79 1942.66 3109.67 1957.66 3119.44 1969.23C3129.2 1980.8 3141.68 1986.58 3156.87 1986.58C3167.72 1986.58 3177.84 1984.95 3187.25 1981.7C3196.65 1978.45 3204.42 1973.75 3210.57 1967.6Z" fill="#0C831F"/>
<path d="M2624.54 1355.06H2812.84V1502.26H2624.54V1355.06Z" fill="#0C831F"/>
</svg>
